<svg id="visual" viewBox="0 0 1920 1080" width="1920" height="1080" xmlns="http://www.w3.org/2000/svg" xmlns:xlink="http://www.w3.org/1999/xlink" version="1.1"><path d="M0 299L45.7 308.5C91.3 318 182.7 337 274.2 330.3C365.7 323.7 457.3 291.3 548.8 262.2C640.3 233 731.7 207 823 214.8C914.3 222.7 1005.7 264.3 1097 285.3C1188.3 306.3 1279.7 306.7 1371.2 288.5C1462.7 270.3 1554.3 233.7 1645.8 210.8C1737.3 188 1828.7 179 1874.3 174.5L1920 170L1920 0L1874.3 0C1828.7 0 1737.3 0 1645.8 0C1554.3 0 1462.7 0 1371.2 0C1279.7 0 1188.3 0 1097 0C1005.7 0 914.3 0 823 0C731.7 0 640.3 0 548.8 0C457.3 0 365.7 0 274.2 0C182.7 0 91.3 0 45.7 0L0 0Z" fill="#0066FF" stroke-linecap="round" stroke-linejoin="miter"></path></svg>